<svg width="24" height="25" viewBox="0 0 24 25" fill="none" xmlns="http://www.w3.org/2000/svg">
<path d="M21.0525 10.4324C20.0091 9.86426 18.6066 9.45551 17.0625 9.26332V8.5752C17.0625 7.43895 16.1644 6.40957 14.5312 5.67551C13.0463 5.00613 11.0813 4.6377 9 4.6377C6.91875 4.6377 4.95375 5.00613 3.46875 5.67551C1.83562 6.40957 0.9375 7.43895 0.9375 8.5752V12.3252C0.9375 13.4614 1.83562 14.4908 3.46875 15.2249C4.45219 15.6674 5.64469 15.9749 6.9375 16.1371V16.8252C6.9375 17.9614 7.83563 18.9908 9.46875 19.7249C10.9537 20.3943 12.9187 20.7627 15 20.7627C17.0812 20.7627 19.0462 20.3943 20.5312 19.7249C22.1616 18.9908 23.0625 17.9614 23.0625 16.8252V13.0752C23.0625 12.0768 22.3491 11.1383 21.0525 10.4324ZM20.5144 11.4205C21.4322 11.9202 21.9375 12.5127 21.9375 13.0752C21.9375 14.4055 19.0884 15.8877 15 15.8877C14.3352 15.8881 13.671 15.8461 13.0116 15.7621C13.5313 15.6226 14.0393 15.443 14.5312 15.2249C16.1616 14.4908 17.0625 13.4614 17.0625 12.3252V10.3968C18.4125 10.5777 19.6219 10.9339 20.5144 11.4205ZM10.14 15.0983C9.7725 15.1236 9.39 15.1377 9 15.1377C8.50313 15.1377 8.025 15.1152 7.5675 15.0749C7.55596 15.0738 7.54435 15.0738 7.53281 15.0749C7.19719 15.0439 6.87656 15.0027 6.5625 14.953V12.3364C7.3696 12.4547 8.18428 12.5136 9 12.5127C9.81572 12.5136 10.6304 12.4547 11.4375 12.3364V14.9502C11.0306 15.0149 10.6022 15.0646 10.1541 15.0964L10.14 15.0983ZM15.9375 10.6274V12.3252C15.9375 13.2196 14.6484 14.1814 12.5625 14.7168V12.1236C13.2381 11.9711 13.8974 11.7539 14.5312 11.4749C15.0355 11.2559 15.5084 10.9709 15.9375 10.6274ZM9 5.7627C13.0884 5.7627 15.9375 7.24488 15.9375 8.5752C15.9375 9.90551 13.0884 11.3877 9 11.3877C4.91156 11.3877 2.0625 9.90551 2.0625 8.5752C2.0625 7.24488 4.91156 5.7627 9 5.7627ZM2.0625 12.3252V10.6274C2.49186 10.9696 2.96474 11.2533 3.46875 11.4711C4.10264 11.7501 4.76194 11.9674 5.4375 12.1199V14.713C3.35156 14.1814 2.0625 13.2196 2.0625 12.3252ZM8.0625 16.8252V16.2364C8.37187 16.2533 8.68406 16.2627 9 16.2627C9.36938 16.2627 9.73375 16.2511 10.0931 16.228C10.5328 16.3867 10.9818 16.5185 11.4375 16.6227V19.2168C9.35156 18.6814 8.0625 17.7196 8.0625 16.8252ZM12.5625 19.4502V16.8346C13.3696 16.9534 14.1842 17.013 15 17.0127C15.8157 17.0136 16.6304 16.9547 17.4375 16.8364V19.4502C15.8221 19.7002 14.1779 19.7002 12.5625 19.4502ZM18.5625 19.2168V16.6236C19.2381 16.4711 19.8974 16.2539 20.5312 15.9749C21.0353 15.7571 21.5081 15.4733 21.9375 15.1311V16.8252C21.9375 17.7196 20.6484 18.6814 18.5625 19.2168Z" fill="black"/>
</svg>
