<svg width="25" height="24" viewBox="0 0 25 24" fill="none" xmlns="http://www.w3.org/2000/svg">
<path d="M12.9364 21.3535L13.29 21.7071L13.6436 21.3535L20.8593 14.1377C21.1249 14.6956 21.0273 15.3855 20.5664 15.8464L14.3564 22.0564C13.7717 22.6411 12.8183 22.6411 12.2336 22.0564L4.44355 14.2664L4.44358 14.2664L4.43881 14.2617C4.15783 13.9881 4 13.6084 4 13.21V12.4171L12.9364 21.3535Z" fill="black" stroke="#FFBF00"/>
<path d="M4.44355 9.26645L4.44358 9.26641L4.43881 9.26176C4.15783 8.98818 4 8.60841 4 8.21V2C4 1.17614 4.67614 0.5 5.5 0.5H11.71C12.1091 0.5 12.4914 0.658519 12.7664 0.933553L20.5564 8.72355C21.1412 9.30829 21.1412 10.2617 20.5564 10.8464L14.3464 17.0564C14.0514 17.3515 13.6691 17.5 13.29 17.5C12.9109 17.5 12.5286 17.3515 12.2336 17.0564L4.44355 9.26645ZM5.5 1.5H5V2V8.21V8.41711L5.14645 8.56355L12.9364 16.3536L13.29 16.7071L13.6436 16.3536L19.8536 10.1436L20.2071 9.79L19.8536 9.43645L12.0636 1.64645L11.9171 1.5H11.71H5.5Z" fill="black" stroke="#FFBF00"/>
<path d="M8.5 4.25C8.5 4.66421 8.16421 5 7.75 5C7.33579 5 7 4.66421 7 4.25C7 3.83579 7.33579 3.5 7.75 3.5C8.16421 3.5 8.5 3.83579 8.5 4.25Z" fill="black" stroke="#FFBF00"/>
</svg>
