<svg width="14" height="15" viewBox="0 0 14 15" fill="none" xmlns="http://www.w3.org/2000/svg">
<path d="M7 13.625C10.3827 13.625 13.125 10.8827 13.125 7.5C13.125 4.11725 10.3827 1.375 7 1.375C3.61725 1.375 0.875 4.11725 0.875 7.5C0.875 10.8827 3.61725 13.625 7 13.625Z" fill="#F9C23C"/>
<path opacity="0.53" d="M11.8125 7.5C11.8125 10.1578 9.65781 12.3125 7 12.3125C4.34219 12.3125 2.1875 10.1578 2.1875 7.5C2.1875 4.84219 4.34219 2.6875 7 2.6875C9.65781 2.6875 11.8125 4.84219 11.8125 7.5ZM9.765 9.20187C9.74943 9.15493 9.71952 9.11406 9.67949 9.08502C9.63946 9.05598 9.59133 9.04023 9.54187 9.04H9.555V5.645C9.74312 5.5225 9.77812 5.22062 9.55062 5.085L7.1925 3.65875C7.14144 3.62648 7.08228 3.60935 7.02187 3.60935C6.96147 3.60935 6.90231 3.62648 6.85125 3.65875L4.48875 5.085C4.26125 5.22062 4.29625 5.5225 4.48 5.645V9.04438H4.43187C4.32687 9.04438 4.235 9.11438 4.20875 9.215L4.05563 9.76188C4.01188 9.91062 4.12562 10.0594 4.27875 10.0594H9.72563C9.87875 10.055 9.9925 9.90187 9.94438 9.74875L9.765 9.20187ZM5.20625 5.6975V9.04H5.9325V5.6975H5.20625ZM6.65438 5.6975V9.04H7.39375V5.6975H6.65438ZM8.12 5.6975V9.04H8.82875V5.6975H8.12Z" fill="#D3883E"/>
</svg>
