<svg width="25" height="24" viewBox="0 0 25 24" fill="none" xmlns="http://www.w3.org/2000/svg">
<path d="M18.7 8.4C18.7 6.70261 18.0679 5.07475 16.9426 3.87452C15.8174 2.67428 14.2913 2 12.7 2C11.1087 2 9.58253 2.67428 8.45731 3.87452C7.33209 5.07475 6.69995 6.70261 6.69995 8.4C6.69995 15.8667 3.69995 18 3.69995 18H21.7C21.7 18 18.7 15.8667 18.7 8.4Z" stroke="black" stroke-width="2" stroke-linecap="round" stroke-linejoin="round"/>
<path d="M14.43 21C14.2542 21.3031 14.0019 21.5547 13.6982 21.7295C13.3946 21.9044 13.0504 21.9965 12.7 21.9965C12.3496 21.9965 12.0054 21.9044 11.7018 21.7295C11.3982 21.5547 11.1458 21.3031 10.97 21" stroke="black" stroke-width="2" stroke-linecap="round" stroke-linejoin="round"/>
</svg>
