<svg width="25" height="24" viewBox="0 0 25 24" fill="none" xmlns="http://www.w3.org/2000/svg">
<path d="M7.90002 19C9.00459 19 9.90002 18.1046 9.90002 17C9.90002 15.8954 9.00459 15 7.90002 15C6.79545 15 5.90002 15.8954 5.90002 17C5.90002 18.1046 6.79545 19 7.90002 19Z" stroke="black" stroke-width="2" stroke-miterlimit="1.5" stroke-linecap="round" stroke-linejoin="round"/>
<path d="M17.9 19C19.0046 19 19.9 18.1046 19.9 17C19.9 15.8954 19.0046 15 17.9 15C16.7954 15 15.9 15.8954 15.9 17C15.9 18.1046 16.7954 19 17.9 19Z" stroke="black" stroke-width="2" stroke-miterlimit="1.5" stroke-linecap="round" stroke-linejoin="round"/>
<path d="M14.9 17V6.6C14.9 6.26863 14.6314 6 14.3 6H3.50002C3.16865 6 2.90002 6.26863 2.90002 6.6V16.4C2.90002 16.7314 3.16865 17 3.50002 17H5.55002" stroke="black" stroke-width="2" stroke-linecap="round"/>
<path d="M14.9 17H9.95007" stroke="black" stroke-width="2" stroke-linecap="round"/>
<path d="M14.9 9H20.5101C20.7472 9 20.9621 9.13964 21.0584 9.35632L22.8483 13.3836C22.8824 13.4604 22.9 13.5434 22.9 13.6273V16.4C22.9 16.7314 22.6314 17 22.3 17H20.4" stroke="black" stroke-width="2" stroke-linecap="round"/>
<path d="M14.9 17H15.9" stroke="black" stroke-width="2" stroke-linecap="round"/>
</svg>
