<svg width="25" height="24" viewBox="0 0 25 24" fill="none" xmlns="http://www.w3.org/2000/svg">
<path d="M9.75586 13.6698V9.44576C9.75586 9.2044 9.95152 9.00879 10.1929 9.00879H14.418C14.6594 9.00879 14.8551 9.2044 14.8551 9.44576V13.6698C14.8551 13.9111 14.6594 14.1067 14.418 14.1067H10.1929C9.95152 14.1067 9.75586 13.9111 9.75586 13.6698Z" stroke="black" stroke-width="1.7"/>
<path d="M1.74011 13.6698V9.44576C1.74011 9.2044 1.9358 9.00879 2.17719 9.00879H6.40226C6.64365 9.00879 6.83934 9.2044 6.83934 9.44576V13.6698C6.83934 13.9111 6.64365 14.1067 6.40226 14.1067H2.17719C1.9358 14.1067 1.74011 13.9111 1.74011 13.6698Z" stroke="black" stroke-width="1.7"/>
<path d="M9.75586 5.66098V1.43697C9.75586 1.19564 9.95152 1 10.1929 1H14.418C14.6594 1 14.8551 1.19564 14.8551 1.43697V5.66098C14.8551 5.90231 14.6594 6.09795 14.418 6.09795H10.1929C9.95152 6.09795 9.75586 5.90231 9.75586 5.66098Z" stroke="black" stroke-width="1.7"/>
<path d="M1.74011 5.66098V1.43697C1.74011 1.19564 1.93578 1 2.17719 1H6.40226C6.64367 1 6.83934 1.19564 6.83934 1.43697V5.66098C6.83934 5.90231 6.64367 6.09795 6.40226 6.09795H2.17719C1.93578 6.09795 1.74011 5.90231 1.74011 5.66098Z" stroke="black" stroke-width="1.7"/>
<path d="M17.7609 5.66098V1.43697C17.7609 1.19564 17.9565 1 18.1979 1H22.423C22.6644 1 22.8601 1.19564 22.8601 1.43697V5.66098C22.8601 5.90231 22.6644 6.09795 22.423 6.09795H18.1979C17.9565 6.09795 17.7609 5.90231 17.7609 5.66098Z" stroke="black" stroke-width="1.7"/>
<path d="M17.7609 13.6698V9.44576C17.7609 9.2044 17.9565 9.00879 18.1979 9.00879H22.423C22.6644 9.00879 22.8601 9.2044 22.8601 9.44576V13.6698C22.8601 13.9111 22.6644 14.1067 22.423 14.1067H18.1979C17.9565 14.1067 17.7609 13.9111 17.7609 13.6698Z" stroke="black" stroke-width="1.7"/>
<path d="M1.74011 21.6834V17.4594C1.74011 17.2181 1.9358 17.0225 2.17719 17.0225H6.40226C6.64365 17.0225 6.83934 17.2181 6.83934 17.4594V21.6834C6.83934 21.9248 6.64365 22.1204 6.40226 22.1204H2.17719C1.9358 22.1204 1.74011 21.9248 1.74011 21.6834Z" stroke="black" stroke-width="1.7"/>
<path d="M9.75586 21.6834V17.4594C9.75586 17.2181 9.95152 17.0225 10.1929 17.0225H14.418C14.6594 17.0225 14.8551 17.2181 14.8551 17.4594V21.6834C14.8551 21.9248 14.6594 22.1204 14.418 22.1204H10.1929C9.95152 22.1204 9.75586 21.9248 9.75586 21.6834Z" stroke="black" stroke-width="1.7"/>
<path d="M17.7609 21.6834V17.4594C17.7609 17.2181 17.9565 17.0225 18.1979 17.0225H22.423C22.6644 17.0225 22.8601 17.2181 22.8601 17.4594V21.6834C22.8601 21.9248 22.6644 22.1204 22.423 22.1204H18.1979C17.9565 22.1204 17.7609 21.9248 17.7609 21.6834Z" stroke="black" stroke-width="1.7"/>
</svg>
